<?xml version="1.0" encoding="UTF-8" standalone="no" ?>
<!DOCTYPE svg PUBLIC "-//W3C//DTD SVG 1.1//EN" "http://www.w3.org/Graphics/SVG/1.1/DTD/svg11.dtd">
<svg xmlns="http://www.w3.org/2000/svg" xmlns:xlink="http://www.w3.org/1999/xlink" version="1.1" width="82" height="76.10544" viewBox="0 0 82 76.10544" xml:space="preserve">
<desc>Created with Fabric.js 5.3.0</desc>
<defs>
</defs>
<g transform="matrix(1 0 0 1 41.1479939241 38.05272)" id="-QoGyJTxKn-4IkfFCeMHG"  >
<linearGradient id="SVGID_0" gradientUnits="objectBoundingBox" gradientTransform="matrix(1 0 0 1 0 0)"  x1="-0.41354545764260087" y1="0.09326335692419985" x2="1.4135454576426008" y2="0.9067366430758002">
<stop offset="0%" style="stop-color:rgb(255,97,97);stop-opacity: 1"/>
<stop offset="100%" style="stop-color:rgb(81,38,137);stop-opacity: 1"/>
</linearGradient>
<path style="stroke: none; stroke-width: 1; stroke-dasharray: none; stroke-linecap: butt; stroke-dashoffset: 0; stroke-linejoin: miter; stroke-miterlimit: 4; fill: url(#SVGID_0); fill-rule: nonzero; opacity: 1;" vector-effect="non-scaling-stroke"  transform=" translate(-40.8, 21.185)" d="M 42.62 -26.56 L 42.62 -26.56 L 42.62 -26.56 Q 42.62 0.7 13.06 0.7 L 13.06 0.7 L 13.06 0.7 Q 8.32 0.7 0.51 -0.45 L 0.51 -0.45 L 7.68 -38.27 L 7.68 -38.27 Q 8.19 -40.83 8.51 -42.3 L 8.51 -42.3 L 8.51 -42.3 Q 18.24 -43.01 22.56 -43.01 L 22.56 -43.01 L 22.56 -43.01 Q 26.88 -43.01 30.85 -42.11 L 30.85 -42.11 L 30.85 -42.11 Q 34.82 -41.22 37.44 -39.23 L 37.44 -39.23 L 37.44 -39.23 Q 42.62 -35.33 42.62 -26.56 Z M 29.44 -28.93 L 29.44 -28.93 L 29.44 -28.93 Q 29.44 -38.46 22.59 -38.46 L 22.59 -38.46 L 21.95 -38.46 L 21.95 -38.46 Q 21.63 -38.46 21.31 -38.4 L 21.31 -38.4 L 14.72 -4.03 L 14.72 -4.03 Q 14.98 -3.9 15.23 -3.9 L 15.23 -3.9 L 15.74 -3.9 L 15.74 -3.9 Q 18.11 -3.9 20.58 -5.38 L 20.58 -5.38 L 20.58 -5.38 Q 23.04 -6.85 24.96 -9.86 L 24.96 -9.86 L 24.96 -9.86 Q 29.44 -16.83 29.44 -28.93 Z M 51.01 -31.17 L 51.01 -31.17 L 51.01 -31.17 Q 48.83 -32.83 48.83 -36.38 L 48.83 -36.38 L 48.83 -36.38 Q 48.83 -39.94 51.17 -41.79 L 51.17 -41.79 L 51.17 -41.79 Q 53.5 -43.65 57.54 -43.65 L 57.54 -43.65 L 57.54 -43.65 Q 60.1 -43.65 66.18 -42.75 L 66.18 -42.75 L 70.53 -42.11 L 70.53 -42.11 Q 72.7 -41.86 74.98 -41.86 L 74.98 -41.86 L 74.98 -41.86 Q 77.25 -41.86 78.78 -42.82 L 78.78 -42.82 L 78.78 -42.82 Q 81.09 -40.77 81.09 -37.82 L 81.09 -37.82 L 81.09 -37.82 Q 81.09 -34.88 78.46 -32.77 L 78.46 -32.77 L 78.46 -32.77 Q 75.78 -30.53 72.32 -30.53 L 72.32 -30.53 L 72.32 -30.53 Q 70.66 -30.53 67.97 -30.98 L 67.97 -30.98 L 67.97 -30.98 Q 64.83 -21.12 64.83 -14.27 L 64.83 -14.27 L 64.83 -14.27 Q 64.83 -7.42 68.29 -3.84 L 68.29 -3.84 L 68.29 -3.84 Q 66.69 -0.96 64.32 0.16 L 64.32 0.16 L 64.32 0.16 Q 61.95 1.28 58.4 1.28 L 58.4 1.28 L 58.4 1.28 Q 54.85 1.28 52.64 -0.67 L 52.64 -0.67 L 52.64 -0.67 Q 50.43 -2.62 50.43 -6.66 L 50.43 -6.66 L 50.43 -6.66 Q 50.43 -11.33 52.99 -19.01 L 52.99 -19.01 L 52.99 -19.01 Q 55.55 -26.62 59.39 -32.45 L 59.39 -32.45 L 59.39 -32.45 Q 57.54 -32.64 55.62 -32.64 L 55.62 -32.64 L 55.62 -32.64 Q 51.65 -32.64 51.01 -31.17 Z" stroke-linecap="round" />
</g>
</svg>